PathFileType	4	(X/Y/Z)	OpenSim_Sub11_CSPreOp_Magnet.trc
DataRate	CameraRate	NumFrames	NumMarkers	Units	OrigDataRate	OrigDataStartFrame	OrigNumFrames
100	100	33	8	m	100	2776	3701
Frame#	Time	torso_imu_offset_imu	pelvis_imu_offset_imu	tibia_r_imu_offset_imu	femur_r_imu_offset_imu	tibia_l_imu_offset_imu	femur_l_imu_offset_imu	toes_r_imu_offset_imu	toes_l_imu_offset_imu
				X1	Y1	Z1	X2	Y2	Z2	X3	Y3	Z3	X4	Y4	Z4	X5	Y5	Z5	X6	Y6	Z6	X7	Y7	Z7	X8		Y8	Z8	

2776	27.75000000	-0.93603500	-0.21240200	0.04003900	-0.51196300	0.12548800	-0.68383800	-0.38647500	-0.67968800	-0.34521500	-0.58496100	-0.61010700	-0.04687500	-0.69262700	0.43530300	0.26391600	-0.66845700	0.30151400	0.57861300	-0.67724600	-0.54834000	-0.35278300	-0.78125000	-0.09375000	-0.24536100
2777	27.76000000	-0.93798800	-0.21679700	0.04907200	-0.51196300	0.13159200	-0.68676800	-0.37377900	-0.68603500	-0.34277300	-0.59521500	-0.59643600	-0.04541000	-0.69238300	0.43603500	0.26757800	-0.66406200	0.30712900	0.57788100	-0.68188500	-0.55371100	-0.34057600	-0.78027300	-0.09106400	-0.24609400
2778	27.77000000	-0.93579100	-0.22119100	0.05127000	-0.50537100	0.13867200	-0.68652300	-0.35888700	-0.69238300	-0.34252900	-0.60376000	-0.57983400	-0.04272500	-0.68725600	0.43823200	0.26831100	-0.65820300	0.30981400	0.58203100	-0.68432600	-0.55590800	-0.32397500	-0.77294900	-0.09448200	-0.24585000
2779	27.78000000	-0.92895500	-0.22314500	0.05127000	-0.51220700	0.13671900	-0.68725600	-0.33764600	-0.70483400	-0.32861300	-0.62060500	-0.58154300	-0.04394500	-0.69458000	0.42651400	0.26928700	-0.66137700	0.30151400	0.58276400	-0.69238300	-0.57519500	-0.30835000	-0.78369100	-0.10766600	-0.24926800
2780	27.79000000	-0.93335000	-0.22753900	0.06274400	-0.50805700	0.14990200	-0.69360400	-0.33105500	-0.71313500	-0.32836900	-0.62817400	-0.56005900	-0.04492200	-0.69238300	0.43139600	0.26684600	-0.65771500	0.31127900	0.58129900	-0.69458000	-0.57617200	-0.29248000	-0.77929700	-0.10083000	-0.25170900
2781	27.80000000	-0.92456100	-0.22534200	0.06030300	-0.50756800	0.16406200	-0.68603500	-0.31640600	-0.71728500	-0.32373000	-0.64135700	-0.53759800	-0.03710900	-0.69091800	0.44213900	0.27612300	-0.65893600	0.31860400	0.59277300	-0.69726600	-0.57446300	-0.26782200	-0.77832000	-0.09301800	-0.24536100
2782	27.81000000	-0.92211900	-0.23608400	0.06494100	-0.50415000	0.16479500	-0.69238300	-0.30786100	-0.72363300	-0.32568400	-0.64868200	-0.53100600	-0.03857400	-0.68969700	0.43872100	0.27978500	-0.65380900	0.31225600	0.59326200	-0.69921900	-0.58691400	-0.25048800	-0.77905300	-0.10083000	-0.24755900
2783	27.82000000	-0.92651400	-0.22973600	0.06713900	-0.50024400	0.16601600	-0.68896500	-0.29711900	-0.72778300	-0.32983400	-0.65502900	-0.52490200	-0.03857400	-0.68701200	0.43139600	0.27880900	-0.65039100	0.30664100	0.59521500	-0.69897500	-0.59472700	-0.22973600	-0.77368200	-0.10498000	-0.25195300
2784	27.83000000	-0.92627000	-0.24047900	0.06054700	-0.49731400	0.17895500	-0.68481400	-0.28466800	-0.72973600	-0.31860400	-0.66210900	-0.50659200	-0.03173800	-0.68603500	0.43945300	0.28759800	-0.64502000	0.31225600	0.60571300	-0.69653300	-0.59765600	-0.20947300	-0.77246100	-0.09838900	-0.24365200
2785	27.84000000	-0.92187500	-0.23828100	0.06494100	-0.50268600	0.17334000	-0.69165000	-0.26977500	-0.73193400	-0.32080100	-0.67041000	-0.50683600	-0.04199200	-0.68676800	0.42919900	0.28198200	-0.64599600	0.30078100	0.60131800	-0.69921900	-0.60913100	-0.20459000	-0.77221700	-0.11059600	-0.25268600
2786	27.85000000	-0.92822300	-0.24707000	0.06518600	-0.50097700	0.18164100	-0.69018600	-0.26538100	-0.74243200	-0.31591800	-0.67895500	-0.49267600	-0.04272500	-0.68774400	0.43017600	0.28833000	-0.64379900	0.29736300	0.60791000	-0.69751000	-0.61132800	-0.19775400	-0.77270500	-0.11084000	-0.25317400
2787	27.86000000	-0.92163100	-0.24707000	0.06738300	-0.49169900	0.19531200	-0.68994100	-0.25927700	-0.73608400	-0.32299800	-0.67993200	-0.47314500	-0.04394500	-0.67968800	0.44360400	0.29052700	-0.63623000	0.30346700	0.61010700	-0.68920900	-0.60253900	-0.19409200	-0.76684600	-0.10058600	-0.25097700
2788	27.87000000	-0.92358400	-0.25122100	0.06738300	-0.49731400	0.19995100	-0.68920900	-0.25927700	-0.73803700	-0.32739300	-0.68823200	-0.46679700	-0.04516600	-0.68286100	0.44287100	0.29174800	-0.63818400	0.30151400	0.61425800	-0.69360400	-0.60131800	-0.19726600	-0.77050800	-0.10351600	-0.25366200
2789	27.88000000	-0.91674800	-0.26001000	0.07641600	-0.49780300	0.20117200	-0.69067400	-0.26171900	-0.72753900	-0.33422900	-0.69165000	-0.46777300	-0.05224600	-0.68188500	0.43530300	0.29345700	-0.63598600	0.29174800	0.61474600	-0.69043000	-0.60913100	-0.20825200	-0.77246100	-0.11181600	-0.25878900
2790	27.89000000	-0.91674800	-0.26001000	0.07421900	-0.48364300	0.20947300	-0.68212900	-0.26782200	-0.72973600	-0.33422900	-0.68774400	-0.45922900	-0.04834000	-0.67114300	0.43920900	0.30200200	-0.62646500	0.29199200	0.62475600	-0.67602500	-0.60229500	-0.20703100	-0.76269500	-0.10620100	-0.25024400
2791	27.90000000	-0.91699200	-0.25561500	0.07641600	-0.49047900	0.21557600	-0.68261700	-0.27661100	-0.71508800	-0.34594700	-0.69628900	-0.45190400	-0.05517600	-0.67822300	0.43896500	0.29882800	-0.63012700	0.29126000	0.62573200	-0.68066400	-0.59594700	-0.22021500	-0.76586900	-0.10595700	-0.25488300
2792	27.91000000	-0.91455100	-0.26416000	0.07421900	-0.48730500	0.22460900	-0.68872100	-0.28295900	-0.71313500	-0.35717800	-0.69702100	-0.44287100	-0.06689500	-0.67236300	0.44458000	0.29736300	-0.62622100	0.29003900	0.62402300	-0.67358400	-0.59301800	-0.23852500	-0.76342800	-0.10376000	-0.26220700
2793	27.92000000	-0.91870100	-0.26635700	0.07885700	-0.48095700	0.22876000	-0.67724600	-0.29150400	-0.71093800	-0.35961900	-0.69482400	-0.43676800	-0.05932600	-0.66821300	0.44653300	0.30883800	-0.62085000	0.28955100	0.63525400	-0.66699200	-0.59033200	-0.24047900	-0.76196300	-0.10253900	-0.25219700
2794	27.93000000	-0.92114300	-0.26220700	0.08325200	-0.48364300	0.23608400	-0.68627900	-0.30639600	-0.69848600	-0.36010700	-0.69921900	-0.43335000	-0.07983400	-0.66845700	0.44848600	0.30273400	-0.61962900	0.29077100	0.62866200	-0.66503900	-0.58496100	-0.26635700	-0.76245100	-0.10351600	-0.25976600
2795	27.94000000	-0.91650400	-0.26855500	0.08544900	-0.47851600	0.23315400	-0.68310500	-0.32128900	-0.69433600	-0.35791000	-0.69726600	-0.43896500	-0.08325200	-0.66479500	0.44018600	0.30419900	-0.61474600	0.27978500	0.63525400	-0.65307600	-0.59008800	-0.27905300	-0.75903300	-0.11254900	-0.25903300
2796	27.95000000	-0.91210900	-0.26855500	0.08764600	-0.47802700	0.24877900	-0.67382800	-0.32983400	-0.68603500	-0.36718800	-0.69921900	-0.42700200	-0.08520500	-0.66601600	0.44946300	0.31054700	-0.61547900	0.28759800	0.64502000	-0.64941400	-0.57714800	-0.29077100	-0.76171900	-0.10473600	-0.25561500
2797	27.96000000	-0.91845700	-0.27294900	0.08325200	-0.48364300	0.25122100	-0.68310500	-0.34716800	-0.66918900	-0.36108400	-0.70874000	-0.42114300	-0.10156200	-0.66870100	0.45092800	0.30273400	-0.61962900	0.28466800	0.63232400	-0.64697300	-0.57373000	-0.31469700	-0.76635700	-0.10253900	-0.26879900
2798	27.97000000	-0.91381800	-0.28369100	0.07885700	-0.47607400	0.25781200	-0.67285200	-0.36401400	-0.66723600	-0.36328100	-0.70214800	-0.41626000	-0.10083000	-0.66064500	0.45312500	0.30957000	-0.61157200	0.28637700	0.64624000	-0.63574200	-0.56689500	-0.32397500	-0.76074200	-0.10302700	-0.26025400
2799	27.98000000	-0.91381800	-0.28149400	0.08789100	-0.48242200	0.26171900	-0.66870100	-0.38110400	-0.65673800	-0.37280300	-0.71118200	-0.41748000	-0.10473600	-0.66626000	0.45190400	0.31762700	-0.61645500	0.27978500	0.65014600	-0.63305700	-0.56762700	-0.34106400	-0.76684600	-0.10742200	-0.25585900
2800	27.99000000	-0.91601600	-0.27954100	0.08349600	-0.47338900	0.27661100	-0.67138700	-0.40673800	-0.64013700	-0.37329100	-0.70459000	-0.40795900	-0.11059600	-0.65966800	0.46020500	0.31176800	-0.61132800	0.29003900	0.64672900	-0.62329100	-0.55078100	-0.36279300	-0.76123000	-0.09936500	-0.26220700
2801	28	-0.91162100	-0.28369100	0.08569300	-0.47753900	0.28076200	-0.66918900	-0.42407200	-0.62329100	-0.37841800	-0.70874000	-0.40454100	-0.11401400	-0.66186500	0.46167000	0.31127900	-0.61303700	0.29101600	0.64892600	-0.61718800	-0.54223600	-0.38134800	-0.76489300	-0.09619100	-0.26342800
2802	28.01000000	-0.91381800	-0.28149400	0.08789100	-0.47460900	0.28784200	-0.66821300	-0.44555700	-0.60668900	-0.38110400	-0.70947300	-0.40527300	-0.11694300	-0.66015600	0.46606400	0.31225600	-0.61328100	0.29174800	0.65380900	-0.60815400	-0.53979500	-0.39624000	-0.76562500	-0.09570300	-0.26440400
2803	28.02000000	-0.91137700	-0.29248000	0.07910200	-0.47363300	0.28906200	-0.67578100	-0.46264600	-0.59204100	-0.39062500	-0.71240200	-0.40991200	-0.12988300	-0.66162100	0.46191400	0.30542000	-0.61230500	0.29003900	0.64331100	-0.60498000	-0.53393600	-0.42236300	-0.77148400	-0.09887700	-0.27343800
2804	28.03000000	-0.90698200	-0.28588900	0.08569300	-0.47509800	0.29126000	-0.66674800	-0.48608400	-0.58178700	-0.39331100	-0.70800800	-0.40869100	-0.12719700	-0.65918000	0.46240200	0.31396500	-0.61425800	0.28784200	0.65161100	-0.59545900	-0.52807600	-0.42871100	-0.77148400	-0.09790000	-0.26757800
2805	28.04000000	-0.90722700	-0.28369100	0.08789100	-0.47094700	0.29858400	-0.67187500	-0.50341800	-0.56298800	-0.40063500	-0.70507800	-0.41113300	-0.13501000	-0.65405300	0.47070300	0.30883800	-0.60839800	0.29028300	0.64843800	-0.58691400	-0.52026400	-0.44775400	-0.76806600	-0.09570300	-0.27490200
2806	28.05000000	-0.91137700	-0.28808600	0.09252900	-0.47119100	0.29834000	-0.66259800	-0.51879900	-0.53784200	-0.40161100	-0.70483400	-0.41674800	-0.12793000	-0.65698200	0.46923800	0.31469700	-0.60839800	0.29003900	0.65722700	-0.57714800	-0.51611300	-0.44995100	-0.77172900	-0.09448200	-0.27075200
2807	28.06000000	-0.90918000	-0.28808600	0.08349600	-0.47045900	0.30883800	-0.67211900	-0.54028300	-0.52124000	-0.40673800	-0.70336900	-0.41357400	-0.13403300	-0.65283200	0.47973600	0.31005900	-0.60766600	0.29882800	0.65307600	-0.57080100	-0.50000000	-0.46655300	-0.77294900	-0.08544900	-0.27612300
2808	28.07000000	-0.90698200	-0.28808600	0.08789100	-0.46655300	0.30932600	-0.65893600	-0.55127000	-0.50463900	-0.40502900	-0.69848600	-0.41967800	-0.12670900	-0.65087900	0.47802700	0.31494100	-0.60473600	0.29418900	0.65820300	-0.56347700	-0.49316400	-0.47363300	-0.77124000	-0.08691400	-0.26831100
